<svg xmlns="http://www.w3.org/2000/svg" viewBox="0 0 48 48" width="48" height="48">
  <path fill="#EA4335" d="M24 9.5c3.9 0 6.6 1.7 8.1 3.1l6-5.8C35.6 4 30.2 2 24 2 14.9 2 7.5 7 3.6 14.1l7.1 5.5C12.9 15 18 9.5 24 9.5z"/>
  <path fill="#34A853" d="M46.5 24.5c0-1.6-.1-2.6-.4-3.8H24v7.2h12.8c-.6 3.3-2.6 6-5.6 7.7l8.6 6.6C44.1 38.1 46.5 31.9 46.5 24.5z"/>
  <path fill="#4A90E2" d="M10.7 29.6A14.7 14.7 0 0110 24c0-1.2.2-2.3.6-3.4L3.5 15a22 22 0 000 18l7.2-3.4z"/>
  <path fill="#FBBC05" d="M24 46c6.3 0 11.8-2 16.2-5.4l-8.6-6.6C29.6 34.8 27.1 36 24 36c-6 0-11.1-5.5-13.3-10.6L3.6 33.9C7.5 41 14.9 46 24 46z"/>
</svg>
